<svg height="35.64" viewBox="0 0 252.51 35.64" width="252.51" xmlns="http://www.w3.org/2000/svg"><path d="m17.22 34.44a17.22 17.22 0 1 0 -17.22-17.22 17.22 17.22 0 0 0 17.22 17.22" fill="#e65e37"/><path d="m4.91 15.51c.45-.06 6.57-.7 10.47 3.44 2.89 3.07 2.11 7.94 2 8s-5.69 1.28-8.91-1.46c-4.36-3.71-3.6-10-3.6-10" fill="#fff"/><path d="m29.53 15.54c-.45-.06-6.57-.7-10.47 3.44-2.89 3.07-2.11 7.94-2 8s5.69 1.28 8.91-1.46c4.36-3.71 3.6-10 3.6-10" fill="#fff"/><path d="m19 35.31s-.54-2.65-1.09-8.28c-.12-2.24-.23-3.93-.3-4.15-.1-.27-.24-.32-.37-.29s-.26 0-.36.29c-.08.22-.19 1.91-.3 4.15-.55 5.63-1.09 8.28-1.09 8.28a4.83 4.83 0 0 0 3.51 0" fill="#fff"/><path d="m31.55 7.72a17.16 17.16 0 0 0 -28.66 0 17.17 17.17 0 0 0 14.33 7.72 17.16 17.16 0 0 0 14.33-7.72" fill="#f2c951"/><path d="m18.65 16h-2.86a.22.22 0 0 0 -.22.22v.36a.22.22 0 0 0 .22.22h2.86a.22.22 0 0 0 .23-.22v-.36a.22.22 0 0 0 -.23-.22" fill="#593c2f"/><path d="m18.65 17.09h-2.86a.22.22 0 0 0 -.22.23v.35a.22.22 0 0 0 .22.22h2.86a.22.22 0 0 0 .23-.22v-.35a.23.23 0 0 0 -.23-.23" fill="#593c2f"/><path d="m18 18.18h-1.6a.07.07 0 0 0 -.06.12 1 1 0 0 0 .86.48 1 1 0 0 0 .87-.48.08.08 0 0 0 -.07-.12" fill="#593c2f"/><path d="m17.22 7.05a3.94 3.94 0 0 0 -3.94 3.95c0 2.51 1.93 3.3 2.18 4.49a.33.33 0 0 0 .32.25h2.88a.32.32 0 0 0 .32-.25c.25-1.19 2.18-2 2.18-4.49a3.94 3.94 0 0 0 -3.94-3.94" fill="#fff"/><path d="m55.35 22.25a19.14 19.14 0 0 1 -4.61.52 13.55 13.55 0 0 1 -4.74-.77 10.9 10.9 0 0 1 -3.74-2.32 10.29 10.29 0 0 1 -2.45-3.57 11.77 11.77 0 0 1 -.89-4.64 11.78 11.78 0 0 1 .9-4.69 10.59 10.59 0 0 1 2.48-3.58 11 11 0 0 1 3.7-2.31 13.08 13.08 0 0 1 4.59-.79 14.09 14.09 0 0 1 4.75.77 9.81 9.81 0 0 1 3.56 2.13l-3.29 3.7a5.78 5.78 0 0 0 -2-1.45 6.87 6.87 0 0 0 -2.83-.56 6.33 6.33 0 0 0 -2.52.5 6 6 0 0 0 -2 1.4 6.46 6.46 0 0 0 -1.33 2.13 7.58 7.58 0 0 0 -.47 2.7 8.33 8.33 0 0 0 .43 2.74 5.81 5.81 0 0 0 1.26 2.14 5.7 5.7 0 0 0 2.07 1.4 7.31 7.31 0 0 0 2.82.5 10.74 10.74 0 0 0 1.73-.13 6.56 6.56 0 0 0 1.52-.45v-3.92h-4.13v-4.2h8.89v11.41a16.32 16.32 0 0 1 -3.7 1.34z" fill="#593c2f"/><path d="m79 21.84a11.52 11.52 0 0 1 -4.84 1 12.8 12.8 0 0 1 -4.6-.84 10.69 10.69 0 0 1 -6.1-6 11.78 11.78 0 0 1 -.88-4.62 11.78 11.78 0 0 1 .9-4.69 10.45 10.45 0 0 1 2.52-3.54 10.85 10.85 0 0 1 3.67-2.26 13 13 0 0 1 4.6-.79 12.88 12.88 0 0 1 4.48.8 8.6 8.6 0 0 1 3.58 2.36l-3.53 3.53a4.36 4.36 0 0 0 -1.92-1.49 6.43 6.43 0 0 0 -2.43-.49 6.25 6.25 0 0 0 -2.51.5 6 6 0 0 0 -1.94 1.39 6.36 6.36 0 0 0 -1.3 2.08 7.29 7.29 0 0 0 -.46 2.64 7.41 7.41 0 0 0 .46 2.67 6.08 6.08 0 0 0 1.3 2.09 5.61 5.61 0 0 0 1.93 1.35 6.05 6.05 0 0 0 2.47.49 5.73 5.73 0 0 0 2.71-.61 5.11 5.11 0 0 0 1.85-1.58l3.62 3.41a10.3 10.3 0 0 1 -3.58 2.6z" fill="#593c2f"/><path d="m96.6 22.22-4.67-8.55h-1.78v8.55h-5.08v-21.55h8.22a14.4 14.4 0 0 1 3 .32 8.12 8.12 0 0 1 2.71 1.08 5.64 5.64 0 0 1 1.87 2 6.25 6.25 0 0 1 .7 3.11 5.74 5.74 0 0 1 -1.18 3.68 6.53 6.53 0 0 1 -3.33 2.14l5.63 9.22zm-.21-14.94a2.16 2.16 0 0 0 -.32-1.23 2.19 2.19 0 0 0 -.83-.74 3.84 3.84 0 0 0 -1.13-.31 8.53 8.53 0 0 0 -1.21-.09h-2.78v5h2.48a8.37 8.37 0 0 0 1.31-.11 4.31 4.31 0 0 0 1.23-.38 2.43 2.43 0 0 0 .9-.79 2.38 2.38 0 0 0 .35-1.35z" fill="#593c2f"/><path d="m110.69 5.12v4.44h8.31v4.29h-8.34v8.37h-5.14v-21.55h14.18v4.45z" fill="#593c2f"/><path d="m136.38 22.22-1.67-4.22h-8.34l-1.59 4.23h-5.66l9-21.55h5.05l8.95 21.55zm-5.78-15.79-2.74 7.39h5.42z" fill="#e56819"/><path d="m149.4 5.12v4.44h8.34v4.29h-8.34v8.37h-5.14v-21.55h14.18v4.45z" fill="#e56819"/><path d="m173.63 22.22-4.63-8.55h-1.77v8.55h-5.09v-21.55h8.22a14.42 14.42 0 0 1 3 .32 8.21 8.21 0 0 1 2.64 1.08 5.73 5.73 0 0 1 1.87 2 6.25 6.25 0 0 1 .7 3.11 5.74 5.74 0 0 1 -1.19 3.68 6.5 6.5 0 0 1 -3.29 2.14l5.63 9.22zm-.21-14.94a2.08 2.08 0 0 0 -.33-1.23 2.24 2.24 0 0 0 -.82-.74 3.93 3.93 0 0 0 -1.13-.31 8.53 8.53 0 0 0 -1.21-.09h-2.78v5h2.47a8.6 8.6 0 0 0 1.32-.11 4.25 4.25 0 0 0 1.22-.38 2.23 2.23 0 0 0 1.26-2.13z" fill="#e56819"/><path d="m182.55 22.22v-21.55h5.23v21.55z" fill="#e56819"/><path d="m208 21.84a11.55 11.55 0 0 1 -4.84 1 12.76 12.76 0 0 1 -4.61-.82 10.9 10.9 0 0 1 -3.67-2.33 10.79 10.79 0 0 1 -2.47-3.69 11.78 11.78 0 0 1 -.89-4.62 11.78 11.78 0 0 1 .9-4.69 10.59 10.59 0 0 1 2.48-3.58 11 11 0 0 1 3.71-2.22 13.08 13.08 0 0 1 4.6-.79 12.93 12.93 0 0 1 4.49.8 8.63 8.63 0 0 1 3.57 2.36l-3.53 3.53a4.28 4.28 0 0 0 -1.91-1.49 6.48 6.48 0 0 0 -2.44-.49 6.25 6.25 0 0 0 -2.51.5 6 6 0 0 0 -2 1.39 6.22 6.22 0 0 0 -1.28 2.08 7.51 7.51 0 0 0 -.46 2.64 7.63 7.63 0 0 0 .46 2.67 6.24 6.24 0 0 0 1.26 2.09 5.55 5.55 0 0 0 1.94 1.35 6 6 0 0 0 2.46.49 5.67 5.67 0 0 0 2.71-.61 5.23 5.23 0 0 0 1.86-1.58l3.62 3.41a10.39 10.39 0 0 1 -3.45 2.6z" fill="#e56819"/><path d="m228.29 22.22-1.68-4.22h-8.34l-1.58 4.23h-5.69l9-21.55h5.05l8.95 21.55zm-5.79-15.79-2.73 7.39h5.41z" fill="#e56819"/><path d="m252.51 7.31a6.56 6.56 0 0 1 -.7 3.18 5.66 5.66 0 0 1 -1.89 2.08 8.19 8.19 0 0 1 -2.73 1.16 14.28 14.28 0 0 1 -3.23.36h-2.59v8.13h-5.2v-21.55h7.91a15 15 0 0 1 3.3.35 7.83 7.83 0 0 1 2.68 1.13 5.55 5.55 0 0 1 1.8 2 6.8 6.8 0 0 1 .65 3.16zm-5.2 0a2.27 2.27 0 0 0 -.31-1.22 2.07 2.07 0 0 0 -.82-.76 3.74 3.74 0 0 0 -1.18-.33 10 10 0 0 0 -1.35-.09h-2.29v5.09h2.19a7 7 0 0 0 1.4-.13 3.85 3.85 0 0 0 1.21-.42 2.23 2.23 0 0 0 .84-.85 2.31 2.31 0 0 0 .31-1.26z" fill="#e56819"/><g fill="#593c2f"><path d="m45.83 33.6a3.28 3.28 0 0 1 -.39.46 2.73 2.73 0 0 1 -1.2.64 3.3 3.3 0 0 1 -.8.1 3.43 3.43 0 0 1 -1.33-.26 3.08 3.08 0 0 1 -1.74-1.75 3.74 3.74 0 0 1 0-2.69 3.17 3.17 0 0 1 .7-1.05 3.12 3.12 0 0 1 1-.7 3.41 3.41 0 0 1 1.32-.26 3.1 3.1 0 0 1 .69.08 4 4 0 0 1 .64.2 3.65 3.65 0 0 1 .54.32 2.25 2.25 0 0 1 .4.42l-.54.4a1.78 1.78 0 0 0 -.26-.31 2.33 2.33 0 0 0 -.4-.27 2.38 2.38 0 0 0 -.49-.19 2.54 2.54 0 0 0 -.57-.07 2.65 2.65 0 0 0 -1.11.23 2.43 2.43 0 0 0 -.83.6 2.67 2.67 0 0 0 -.53.89 3 3 0 0 0 -.18 1.05 2.85 2.85 0 0 0 .25 1.06 2.82 2.82 0 0 0 .52.89 2.43 2.43 0 0 0 .84.6 2.57 2.57 0 0 0 1.1.23 2.51 2.51 0 0 0 1-.23 2 2 0 0 0 .82-.72z"/><path d="m47.77 34.06h3v.57h-3.65v-6.37h.65z"/><path d="m52.54 34.63h-.65v-6.37h.65z"/><path d="m57.56 33.53 2.14-5.27h1v6.37h-.65v-5.54l-2.31 5.54h-.34l-2.3-5.54v5.54h-.65v-6.37h1z"/><path d="m62.53 34.63h-.72l2.76-6.37h.63l2.74 6.37h-.72l-.7-1.63h-3.3zm.93-2.27h2.81l-1.4-3.36z"/><path d="m70.57 34.63h-.65v-5.8h-2.13v-.57h4.91v.57h-2.13z"/><path d="m74.49 34.06h3.41v.57h-4.06v-6.37h4v.57h-3.3v2.17h3.08v.58h-3.13z"/><path d="m84.86 29.28a1.68 1.68 0 0 0 -.53-.46 1.65 1.65 0 0 0 -1.26-.1 1.22 1.22 0 0 0 -.44.22 1 1 0 0 0 -.32.37 1.12 1.12 0 0 0 -.12.53 1 1 0 0 0 .11.51 1.08 1.08 0 0 0 .31.33 1.67 1.67 0 0 0 .44.23l.52.18.67.24a2.19 2.19 0 0 1 .6.33 1.46 1.46 0 0 1 .44.51 1.57 1.57 0 0 1 .17.79 1.68 1.68 0 0 1 -.65 1.39 2.17 2.17 0 0 1 -.66.34 2.79 2.79 0 0 1 -.76.11 2.76 2.76 0 0 1 -.57-.06 2.37 2.37 0 0 1 -.55-.18 2.32 2.32 0 0 1 -.89-.71l.56-.41a1.86 1.86 0 0 0 .58.57 1.7 1.7 0 0 0 .88.23 1.8 1.8 0 0 0 .5-.08 1.37 1.37 0 0 0 .45-.23 1.41 1.41 0 0 0 .34-.39 1.13 1.13 0 0 0 .13-.54 1.15 1.15 0 0 0 -.13-.55 1.24 1.24 0 0 0 -.35-.37 2.34 2.34 0 0 0 -.5-.25l-.58-.2a6.5 6.5 0 0 1 -.62-.22 1.79 1.79 0 0 1 -.55-.33 1.28 1.28 0 0 1 -.39-.5 1.84 1.84 0 0 1 0-1.52 1.71 1.71 0 0 1 .48-.55 2.24 2.24 0 0 1 .66-.32 3 3 0 0 1 .71-.1 2.53 2.53 0 0 1 1.11.23 1.88 1.88 0 0 1 .69.55z"/><path d="m90.18 33.53 2.14-5.27h1v6.37h-.65v-5.54l-2.31 5.54h-.36l-2.3-5.54v5.54h-.7v-6.37h1z"/><path d="m95.14 34.63h-.71l2.76-6.37h.63l2.74 6.37h-.72l-.71-1.63h-3.29zm.94-2.27h2.81l-1.4-3.36z"/><path d="m102.31 34.63h-.65v-6.37h1.88a4 4 0 0 1 .87.09 1.94 1.94 0 0 1 .69.29 1.32 1.32 0 0 1 .46.53 1.85 1.85 0 0 1 .16.79 1.5 1.5 0 0 1 -.13.64 1.58 1.58 0 0 1 -.34.5 1.82 1.82 0 0 1 -.51.34 2.69 2.69 0 0 1 -.65.16l1.86 3h-.79l-1.77-3h-1.08zm0-3.54h1.13a2.19 2.19 0 0 0 1.21-.28 1 1 0 0 0 .42-.85 1.07 1.07 0 0 0 -.12-.53.9.9 0 0 0 -.32-.35 1.47 1.47 0 0 0 -.51-.2 3.2 3.2 0 0 0 -.65-.06h-1.16z"/><path d="m109.19 34.63h-.64v-5.8h-2.14v-.57h4.92v.57h-2.14z"/><path d="m114.43 34.63h-.72l2.76-6.37h.63l2.74 6.37h-.72l-.7-1.67h-3.3zm.93-2.27h2.81l-1.4-3.36z"/><path d="m125.68 29.41a2.48 2.48 0 0 0 -.8-.55 2.81 2.81 0 0 0 -1-.19 2.62 2.62 0 0 0 -1.94.83 2.64 2.64 0 0 0 -.52.89 2.89 2.89 0 0 0 -.19 1.06 2.93 2.93 0 0 0 .19 1.06 2.5 2.5 0 0 0 .52.88 2.62 2.62 0 0 0 1.94.83 3.84 3.84 0 0 0 1-.12 2.36 2.36 0 0 0 .73-.3v-1.93h-1.49v-.58h2.14v2.88a4.16 4.16 0 0 1 -1.13.47 5.16 5.16 0 0 1 -1.25.16 3.43 3.43 0 0 1 -1.33-.26 3 3 0 0 1 -1.74-1.75 3.74 3.74 0 0 1 0-2.69 3.17 3.17 0 0 1 .7-1.05 3 3 0 0 1 1-.7 3.41 3.41 0 0 1 1.32-.26 3.59 3.59 0 0 1 1.33.23 3 3 0 0 1 1 .64z"/><path d="m128.68 34.63h-.68v-6.37h1.88a4 4 0 0 1 .87.09 1.87 1.87 0 0 1 .69.29 1.32 1.32 0 0 1 .46.53 1.85 1.85 0 0 1 .16.79 1.5 1.5 0 0 1 -.13.64 1.58 1.58 0 0 1 -.34.5 1.82 1.82 0 0 1 -.51.34 2.69 2.69 0 0 1 -.65.16l1.86 3h-.79l-1.77-3h-1.08zm0-3.54h1.13a2.19 2.19 0 0 0 1.21-.28 1 1 0 0 0 .42-.85 1.07 1.07 0 0 0 -.12-.53.9.9 0 0 0 -.32-.35 1.47 1.47 0 0 0 -.51-.2 3.2 3.2 0 0 0 -.65-.06h-1.16z"/><path d="m134.25 34.63h-.65v-6.37h.65z"/><path d="m141.49 33.6a3.28 3.28 0 0 1 -.39.46 2.66 2.66 0 0 1 -.53.38 2.83 2.83 0 0 1 -.67.26 3.3 3.3 0 0 1 -.8.1 3.43 3.43 0 0 1 -1.33-.26 3.08 3.08 0 0 1 -1.77-1.75 3.74 3.74 0 0 1 0-2.69 3.17 3.17 0 0 1 .7-1.05 3.12 3.12 0 0 1 1.05-.7 3.41 3.41 0 0 1 1.32-.26 3.1 3.1 0 0 1 .69.08 4 4 0 0 1 .64.2 2.85 2.85 0 0 1 .54.32 2.25 2.25 0 0 1 .4.42l-.54.4a1.43 1.43 0 0 0 -.26-.31 2.24 2.24 0 0 0 -.39-.27 2.72 2.72 0 0 0 -.5-.19 2.47 2.47 0 0 0 -.57-.07 2.65 2.65 0 0 0 -1.11.23 2.43 2.43 0 0 0 -.83.6 2.67 2.67 0 0 0 -.53.89 3.1 3.1 0 0 0 0 2.11 2.67 2.67 0 0 0 .53.89 2.3 2.3 0 0 0 .83.6 2.61 2.61 0 0 0 1.1.23 2.51 2.51 0 0 0 1-.23 2 2 0 0 0 .83-.72z"/><path d="m145.14 34.8a2.52 2.52 0 0 1 -1.18-.25 2.15 2.15 0 0 1 -.73-.63 2.36 2.36 0 0 1 -.38-.82 3.69 3.69 0 0 1 -.1-.84v-4h.65v3.92a3.22 3.22 0 0 0 .09.76 2 2 0 0 0 .29.64 1.43 1.43 0 0 0 .54.46 1.69 1.69 0 0 0 .82.18 1.74 1.74 0 0 0 .86-.22 1.4 1.4 0 0 0 .53-.46 2 2 0 0 0 .3-.64 3.85 3.85 0 0 0 .09-.76v-3.88h.64v4a3.69 3.69 0 0 1 -.1.84 2.33 2.33 0 0 1 -.37.82 2.19 2.19 0 0 1 -.74.63 2.53 2.53 0 0 1 -1.21.25z"/><path d="m150 34.06h3v.57h-3.62v-6.37h.62z"/><path d="m155.32 34.63h-.65v-5.8h-2.13v-.57h4.92v.57h-2.14z"/><path d="m160.94 34.8a2.55 2.55 0 0 1 -1.18-.25 2.25 2.25 0 0 1 -.73-.63 2.33 2.33 0 0 1 -.37-.82 3.69 3.69 0 0 1 -.1-.84v-4h.64v3.92a3.22 3.22 0 0 0 .09.76 1.8 1.8 0 0 0 .3.64 1.4 1.4 0 0 0 .53.46 1.71 1.71 0 0 0 .82.18 1.69 1.69 0 0 0 .82-.18 1.51 1.51 0 0 0 .54-.46 2 2 0 0 0 .29-.64 3.22 3.22 0 0 0 .09-.76v-3.92h.65v4a4.35 4.35 0 0 1 -.1.84 2.36 2.36 0 0 1 -.38.82 2.15 2.15 0 0 1 -.73.63 2.55 2.55 0 0 1 -1.18.25z"/><path d="m165.81 34.63h-.64v-6.37h1.83a4 4 0 0 1 .87.09 1.87 1.87 0 0 1 .69.29 1.32 1.32 0 0 1 .46.53 1.85 1.85 0 0 1 .16.79 1.5 1.5 0 0 1 -.13.64 1.58 1.58 0 0 1 -.34.5 1.82 1.82 0 0 1 -.51.34 2.69 2.69 0 0 1 -.65.16l1.86 3h-.79l-1.77-3h-1.08zm0-3.54h1.13a2.19 2.19 0 0 0 1.21-.28 1 1 0 0 0 .42-.85 1.07 1.07 0 0 0 -.12-.53.9.9 0 0 0 -.32-.35 1.47 1.47 0 0 0 -.51-.2 3.2 3.2 0 0 0 -.65-.06h-1.16z"/><path d="m170.69 34.63h-.69l2.76-6.37h.63l2.74 6.37h-.72l-.7-1.67h-3.3zm.93-2.27h2.81l-1.43-3.36z"/><path d="m177.85 34.06h3v.57h-3.62v-6.37h.64z"/><path d="m184.2 28.26h2.12a3.73 3.73 0 0 1 2.28.79 3 3 0 0 1 .77 1 3.09 3.09 0 0 1 .3 1.39 3 3 0 0 1 -.3 1.4 3 3 0 0 1 -.77 1 3.57 3.57 0 0 1 -2.28.79h-2.12zm.65 5.8h1.29a3.26 3.26 0 0 0 1.26-.23 2.57 2.57 0 0 0 .88-.59 2.35 2.35 0 0 0 .53-.83 2.68 2.68 0 0 0 0-1.93 2.35 2.35 0 0 0 -.53-.83 2.43 2.43 0 0 0 -.88-.59 3.26 3.26 0 0 0 -1.26-.23h-1.29z"/><path d="m191.85 34.06h3.41v.57h-4.06v-6.37h4v.57h-3.31v2.17h3.09v.58h-3.09z"/><path d="m198.66 33.8 2.07-5.54h.69l-2.42 6.37h-.68l-2.43-6.37h.7z"/><path d="m203.14 34.06h3.42v.57h-4.06v-6.37h3.95v.57h-3.31v2.17h3.09v.58h-3.09z"/><path d="m208.65 34.06h3v.57h-3.65v-6.37h.65z"/><path d="m218.83 31.44a3.49 3.49 0 0 1 -.25 1.35 3.21 3.21 0 0 1 -.7 1.06 3.14 3.14 0 0 1 -1 .69 3.48 3.48 0 0 1 -2.64 0 3 3 0 0 1 -1.05-.69 3.21 3.21 0 0 1 -.7-1.06 3.74 3.74 0 0 1 0-2.69 3.17 3.17 0 0 1 .7-1.05 2.93 2.93 0 0 1 1.05-.7 3.48 3.48 0 0 1 2.64 0 3 3 0 0 1 1 .7 3.17 3.17 0 0 1 .7 1.05 3.47 3.47 0 0 1 .25 1.34zm-.68 0a3.11 3.11 0 0 0 -.18-1.06 2.82 2.82 0 0 0 -.52-.89 2.57 2.57 0 0 0 -.84-.6 2.61 2.61 0 0 0 -1.1-.23 2.62 2.62 0 0 0 -1.94.83 2.64 2.64 0 0 0 -.52.89 3.11 3.11 0 0 0 -.18 1.06 3.15 3.15 0 0 0 .18 1.06 2.5 2.5 0 0 0 .52.88 2.62 2.62 0 0 0 1.94.83 2.61 2.61 0 0 0 1.1-.23 2.57 2.57 0 0 0 .84-.6 2.66 2.66 0 0 0 .52-.88 3.15 3.15 0 0 0 .18-1.05z"/><path d="m220.36 28.26h1.8a3.51 3.51 0 0 1 .89.1 1.86 1.86 0 0 1 .68.32 1.31 1.31 0 0 1 .43.53 1.6 1.6 0 0 1 .16.75 1.73 1.73 0 0 1 -.16.75 1.51 1.51 0 0 1 -.44.53 2 2 0 0 1 -.69.32 3.42 3.42 0 0 1 -.88.11h-1.15v3h-.65zm.65 2.86h1.1a1.89 1.89 0 0 0 1.16-.3 1 1 0 0 0 .4-.86 1 1 0 0 0 -.41-.87 2.08 2.08 0 0 0 -1.15-.27h-1.11z"/><path d="m228.92 33.53 2.13-5.27h1v6.37h-.65v-5.54l-2.31 5.54h-.34l-2.31-5.54v5.54h-.64v-6.37h1z"/><path d="m234.57 34.06h3.43v.57h-4.06v-6.37h3.95v.57h-3.31v2.17h3.09v.58h-3.09z"/><path d="m244 33.69v-5.43h.65v6.37h-.81l-3.72-5.48v5.48h-.65v-6.37h.81z"/><path d="m248.53 34.63h-.65v-5.8h-2.13v-.57h4.92v.57h-2.14z"/></g></svg>