<svg height="40.4" viewBox="0 0 39.05 40.4" width="39.05" xmlns="http://www.w3.org/2000/svg"><path d="m19.52 39.05a19.53 19.53 0 1 0 -19.52-19.53 19.53 19.53 0 0 0 19.52 19.53" fill="#e65e37"/><g fill="#fff"><path d="m5.57 17.58c.51-.06 7.44-.79 11.87 3.9 3.28 3.48 2.39 9 2.31 9.08s-6.45 1.44-10.1-1.67c-4.94-4.2-4.08-11.31-4.08-11.31"/><path d="m33.48 17.61c-.52-.06-7.45-.79-11.87 3.91-3.28 3.47-2.4 9-2.31 9.07s6.45 1.41 10.1-1.66c4.94-4.21 4.08-11.32 4.08-11.32"/><path d="m21.48 40s-.61-3-1.23-9.38c-.14-2.54-.26-4.45-.34-4.7-.11-.31-.26-.36-.41-.33s-.3 0-.41.33c-.08.25-.2 2.16-.34 4.7-.63 6.38-1.25 9.38-1.25 9.38a5.37 5.37 0 0 0 4 0"/></g><path d="m35.77 8.75a19.46 19.46 0 0 0 -32.49 0 19.45 19.45 0 0 0 16.24 8.75 19.46 19.46 0 0 0 16.25-8.75" fill="#f2c951"/><path d="m21.15 18.15h-3.25a.25.25 0 0 0 -.25.25v.41a.25.25 0 0 0 .25.25h3.25a.25.25 0 0 0 .25-.25v-.41a.25.25 0 0 0 -.25-.25" fill="#593c2f"/><path d="m21.15 19.38h-3.25a.25.25 0 0 0 -.25.25v.37a.25.25 0 0 0 .25.25h3.25a.26.26 0 0 0 .25-.25v-.41a.25.25 0 0 0 -.25-.25" fill="#593c2f"/><path d="m20.43 20.61h-1.81a.09.09 0 0 0 -.08.14 1.18 1.18 0 0 0 1 .54 1.15 1.15 0 0 0 1-.54.09.09 0 0 0 -.07-.14" fill="#593c2f"/><path d="m19.52 8a4.47 4.47 0 0 0 -4.47 4.47c0 2.85 2.19 3.74 2.48 5.08a.36.36 0 0 0 .36.29h3.27a.37.37 0 0 0 .36-.29c.28-1.35 2.48-2.24 2.48-5.09a4.47 4.47 0 0 0 -4.48-4.46" fill="#fff"/></svg>